HIERARCHY
ROOT hip
{
	OFFSET 0.000000 0.000000 0.000000 
	CHANNELS 6 Xposition Yposition Zposition Xrotation Zrotation Yrotation
	JOINT abdomen
	{
		OFFSET 0.000000 3.402643 0.000000 
		CHANNELS 3 Xrotation Zrotation Yrotation
		JOINT chest
		{
			OFFSET 0.000000 8.438565 -0.680529 
			CHANNELS 3 Xrotation Zrotation Yrotation
			JOINT neck
			{
				OFFSET 0.000000 10.207942 -0.272212 
				CHANNELS 3 Xrotation Zrotation Yrotation
				JOINT head
				{
					OFFSET 0.000000 3.130431 0.000000 
					CHANNELS 3 Xrotation Zrotation Yrotation
					End Site
					{
						OFFSET 0.000000 3.130435 0.000000 
					}
				}
			}
			JOINT lCollar
			{
				OFFSET 3.470700 6.669187 -0.816635 
				CHANNELS 3 Yrotation Zrotation Xrotation
				JOINT lShldr
				{
					OFFSET 3.198488 0.000000 0.000000 
					CHANNELS 3 Zrotation Yrotation Xrotation
					JOINT lForeArm
					{
						OFFSET 10.139888 0.000000 0.000000 
						CHANNELS 3 Yrotation Zrotation Xrotation
						JOINT lHand
						{
							OFFSET 8.370511 0.000000 0.000000 
							CHANNELS 3 Zrotation Yrotation Xrotation
							End Site
							{
								OFFSET 4.083176 0.000000 0.000000 
							}
						}
					}
				}
			}
			JOINT rCollar
			{
				OFFSET -3.470700 6.669187 -0.816635 
				CHANNELS 3 Yrotation Zrotation Xrotation
				JOINT rShldr
				{
					OFFSET -3.198488 0.000000 0.000000 
					CHANNELS 3 Zrotation Yrotation Xrotation
					JOINT rForeArm
					{
						OFFSET -10.139888 0.000000 0.000000 
						CHANNELS 3 Yrotation Zrotation Xrotation
						JOINT rHand
						{
							OFFSET -8.370511 0.000000 0.000000 
							CHANNELS 3 Zrotation Yrotation Xrotation
							End Site
							{
								OFFSET -4.083176 0.000000 0.000000 
							}
						}
					}
				}
			}
		}
	}
	JOINT lThigh
	{
		OFFSET 5.308129 -1.633274 1.361059 
		CHANNELS 3 Xrotation Zrotation Yrotation
		JOINT lShin
		{
			OFFSET -2.041588 -20.007561 0.000000 
			CHANNELS 3 Xrotation Zrotation Yrotation
			JOINT lFoot
			{
				OFFSET 0.000000 -19.190928 -1.224953 
				CHANNELS 3 Xrotation Yrotation Zrotation
				End Site
				{
					OFFSET 0.000000 -2.449906 4.627600 
				}
			}
		}
	}
	JOINT rThigh
	{
		OFFSET -5.308129 -1.633274 1.361059 
		CHANNELS 3 Xrotation Zrotation Yrotation
		JOINT rShin
		{
			OFFSET 2.041588 -20.007561 0.000000 
			CHANNELS 3 Xrotation Zrotation Yrotation
			JOINT rFoot
			{
				OFFSET 0.000000 -19.190928 -1.224953 
				CHANNELS 3 Xrotation Yrotation Zrotation
				End Site
				{
					OFFSET 0.000000 -2.449906 4.627600 
				}
			}
		}
	}
}
MOTION
Frames: 8
Frame Time: 0.011111
29.369211 49.403481 5.953157 10.048380 -8.464965 -6.848249 6.461465 5.123624 10.642137 -12.148417 3.882581 3.310810 -16.251320 -10.622707 -2.398330 30.721319 23.196796 -1.170698 -2.946841 -9.472683 0.034639 -63.478718 -1.278594 9.430475 -40.198219 4.812196 4.459120 8.524705 12.647240 -57.161514 7.873402 6.594518 -1.033983 46.009552 33.543659 43.332233 71.255028 -9.001223 17.718761 -8.534408 -12.637552 71.986183 -51.942505 18.173765 -1.292349 32.906525 -5.162755 -5.214378 -11.713825 6.075621 -1.930496 29.999054 1.904799 7.227705 -0.106501 5.940863 0.683859 -8.809098 8.135542 4.667447 
29.450560 49.371658 6.751873 10.135010 -7.981139 -6.728050 6.202910 4.403121 10.551994 -12.391952 3.983319 3.318613 -15.833704 -10.713674 -2.522348 30.484289 23.475071 -1.321873 -2.946841 -9.472683 0.034639 -63.477497 -1.298087 7.799613 -39.672173 4.617288 4.272422 8.524705 12.647240 -58.548225 7.873402 6.594518 -1.033983 46.376194 32.807026 43.255413 71.347961 -8.985159 17.760233 -8.534408 -12.637552 72.054550 -51.972336 17.861403 -0.382754 34.148605 -5.093297 -5.382586 -9.496142 6.487238 -2.121912 30.370937 1.328334 6.764007 -0.106482 5.940863 0.683859 -7.050564 7.085511 4.258719 
29.540766 49.316223 7.570929 10.161475 -7.124900 -6.719762 5.879797 3.204108 10.512566 -12.674136 4.152277 3.375043 -15.045322 -10.933875 -2.680361 30.002708 24.125776 -1.402027 -2.946841 -9.472683 0.034639 -63.305882 -1.228629 6.749500 -39.218575 4.456454 4.114526 8.524705 12.647240 -59.729874 7.873402 6.594518 -1.033983 46.895973 31.851788 43.109013 71.400803 -8.979149 17.794907 -8.534408 -12.637552 71.995949 -51.554436 17.302025 0.633604 35.440147 -5.006918 -5.549833 -8.078317 6.974339 -2.247970 30.790783 0.352005 6.174370 -0.106436 5.940865 0.683858 -5.344832 5.702431 3.876899 
29.642120 49.321144 8.411963 10.003513 -6.119807 -6.531255 5.694277 1.796869 10.436651 -12.624410 4.254188 3.432838 -15.119786 -11.152479 -2.835696 30.085432 24.883324 -1.556708 -2.946841 -9.472683 0.034639 -63.018578 -1.758607 4.655760 -38.593510 4.216714 3.898516 8.524705 12.647240 -62.464245 7.873402 6.594518 -1.033983 47.460461 31.128864 42.561291 71.432251 -8.974484 17.808041 -8.534408 -12.637552 72.074074 -50.815247 16.385061 1.756690 36.830769 -4.900163 -5.707584 -7.033686 7.006489 -2.355184 31.317759 -0.722461 5.280865 -0.106398 5.941050 0.693610 -3.799668 4.662297 3.597701 
29.742165 49.319839 9.198544 9.733185 -5.585778 -6.207673 5.963497 0.975637 10.396866 -12.654552 4.176439 3.455966 -15.599592 -11.322309 -2.936092 30.662273 25.522030 -1.657551 -2.946841 -9.472683 0.034639 -62.717987 -2.503048 2.316902 -37.970680 3.986011 3.691285 8.524705 12.647240 -65.374397 7.873402 6.594518 -1.033983 47.970852 30.459208 42.012272 71.420792 -8.973969 17.797565 -8.534408 -12.637552 72.191269 -50.239487 15.789316 2.921688 38.336819 -4.796773 -5.874731 -6.317379 6.051021 -2.531897 32.079250 -1.298485 4.575812 -0.106376 5.940863 0.683858 -1.710201 3.354744 3.314923 
29.845160 49.278507 9.938546 9.506703 -5.213469 -5.832548 6.282181 0.409740 10.216612 -12.899139 4.162303 3.427040 -15.547408 -11.486651 -3.047204 30.825081 25.884783 -1.771550 -2.946841 -9.472683 0.034639 -62.596916 -3.033656 0.705980 -37.518780 3.806422 3.538606 8.524705 12.647240 -67.268936 7.873402 6.594518 -1.033983 48.389351 29.670704 41.745846 71.306473 -8.992272 17.744263 -8.534408 -12.637552 72.201027 -49.867317 15.280889 3.960428 39.861149 -4.670105 -6.072510 -5.840960 4.623465 -2.689853 32.811707 -1.679209 3.899916 -0.106359 5.940863 0.683858 1.059984 1.201361 3.055020 
29.955704 49.273914 10.708400 9.353846 -4.575797 -5.513316 6.358387 -0.445625 9.934669 -13.054389 4.290400 3.381785 -15.323773 -11.478189 -3.191177 30.731815 25.893244 -2.030241 -2.946841 -9.472683 0.034639 -62.598679 -3.474074 -0.848686 -37.128151 3.658163 3.414801 8.524705 12.647240 -69.329483 7.873402 6.594518 -1.033983 48.719074 28.734015 42.161758 71.274971 -8.996781 17.731153 -8.534408 -12.637552 73.343613 -49.304737 14.433188 4.691771 41.263508 -4.569367 -6.247202 -5.978475 3.560793 -2.791132 30.074621 -2.078967 2.869179 6.851897 5.989115 1.679708 1.506637 1.086225 3.035078 
30.087564 49.307369 11.483828 9.150714 -3.919649 -5.389179 6.540467 -1.286092 9.798891 -13.415247 4.418241 3.378224 -15.277299 -11.441849 -3.304899 30.994991 25.870110 -2.194414 -2.946841 -9.472683 0.034639 -62.667915 -3.771930 -2.317117 -36.827682 3.531988 3.305664 8.524705 12.647240 -71.438850 7.873402 6.594518 -1.033983 48.951328 27.510143 42.860107 71.422356 -8.976444 17.796967 -8.534408 -12.637552 74.818222 -48.507183 13.609911 5.308210 42.528095 -4.455580 -6.393178 -6.783414 3.068646 -2.801745 27.946659 -2.772743 2.074223 12.428910 5.943484 2.452358 2.801612 0.619185 2.959850 
